<!-- <svg style="fill: #111b21; stroke: cadetblue; stroke-width: 2; padding:1px;" xmlns="http://www.w3.org/2000/svg" viewBox="0 0 512 512">! Font Awesome Pro 6.4.0 by @fontawesome - https://fontawesome.com License - https://fontawesome.com/license (Commercial License) Copyright 2023 Fonticons, Inc.<path d="M500.3 7.3C507.7 13.3 512 22.4 512 32V176c0 26.5-28.7 48-64 48s-64-21.5-64-48s28.7-48 64-48V71L352 90.2V208c0 26.5-28.7 48-64 48s-64-21.5-64-48s28.7-48 64-48V64c0-15.3 10.8-28.4 25.7-31.4l160-32c9.4-1.9 19.1 .6 26.6 6.6zM74.7 304l11.8-17.8c5.9-8.9 15.9-14.2 26.6-14.2h61.7c10.7 0 20.7 5.3 26.6 14.2L213.3 304H240c26.5 0 48 21.5 48 48V464c0 26.5-21.5 48-48 48H48c-26.5 0-48-21.5-48-48V352c0-26.5 21.5-48 48-48H74.7zM192 408a48 48 0 1 0 -96 0 48 48 0 1 0 96 0zM478.7 278.3L440.3 368H496c6.7 0 12.6 4.1 15 10.4s.6 13.3-4.4 17.7l-128 112c-5.6 4.9-13.9 5.3-19.9 .9s-8.2-12.4-5.3-19.2L391.7 400H336c-6.7 0-12.6-4.1-15-10.4s-.6-13.3 4.4-17.7l128-112c5.6-4.9 13.9-5.3 19.9-.9s8.2 12.4 5.3 19.2zm-339-59.2c-6.5 6.5-17 6.5-23 0L19.9 119.2c-28-29-26.5-76.9 5-103.9c27-23.5 68.4-19 93.4 6.5l10 10.5 9.5-10.5c25-25.5 65.9-30 93.9-6.5c31 27 32.5 74.9 4.5 103.9l-96.4 99.9z"/></svg> -->

<svg style="fill: #111b21; stroke: cadetblue; stroke-width: 2; margin-left:-2px; transform: rotate(90deg);" xmlns="http://www.w3.org/2000/svg" viewBox="0 0 576 512"><!--! Font Awesome Pro 6.4.0 by @fontawesome - https://fontawesome.com License - https://fontawesome.com/license (Commercial License) Copyright 2023 Fonticons, Inc. --><path d="M290.8 48.6l78.4 29.7L288 109.5 206.8 78.3l78.4-29.7c1.8-.7 3.8-.7 5.7 0zM136 92.5V204.7c-1.3 .4-2.6 .8-3.9 1.3l-96 36.4C14.4 250.6 0 271.5 0 294.7V413.9c0 22.2 13.1 42.3 33.5 51.3l96 42.2c14.4 6.3 30.7 6.3 45.1 0L288 457.5l113.5 49.9c14.4 6.3 30.7 6.3 45.1 0l96-42.2c20.3-8.9 33.5-29.1 33.5-51.3V294.7c0-23.3-14.4-44.1-36.1-52.4l-96-36.4c-1.3-.5-2.6-.9-3.9-1.3V92.5c0-23.3-14.4-44.1-36.1-52.4l-96-36.4c-12.8-4.8-26.9-4.8-39.7 0l-96 36.4C150.4 48.4 136 69.3 136 92.5zM392 210.6l-82.4 31.2V152.6L392 121v89.6zM154.8 250.9l78.4 29.7L152 311.7 70.8 280.6l78.4-29.7c1.8-.7 3.8-.7 5.7 0zm18.8 204.4V354.8L256 323.2v95.9l-82.4 36.2zM421.2 250.9c1.8-.7 3.8-.7 5.7 0l78.4 29.7L424 311.7l-81.2-31.1 78.4-29.7zM523.2 421.2l-77.6 34.1V354.8L528 323.2v90.7c0 3.2-1.9 6-4.8 7.3z"/></svg>